<svg
    width="32"
    height="29"
    viewBox="0 0 32 29"
    fill="currentColor"
    xmlns="http://www.w3.org/2000/svg"
>
    <path d="M8.87533 0.541992C4.07976 0.541992 0.166992 4.45476 0.166992 9.25033C0.166992 12.4931 2.61138 15.5464 5.59115 18.6777C8.57091 21.8089 12.2386 24.9803 15.1607 27.9024C15.3834 28.125 15.6854 28.2501 16.0003 28.2501C16.3152 28.2501 16.6172 28.125 16.8399 27.9024C19.762 24.9803 23.4297 21.8089 26.4095 18.6777C29.3893 15.5464 31.8337 12.4931 31.8337 9.25033C31.8337 4.45476 27.9209 0.541992 23.1253 0.541992C20.3731 0.541992 17.977 2.01963 16.0003 4.5297C14.0237 2.01963 11.6275 0.541992 8.87533 0.541992Z"/>
</svg>
