<svg width="32" height="29" viewBox="0 0 32 29" fill="currentColor" xmlns="http://www.w3.org/2000/svg">
<path d="M8.87435 0.541992C4.07878 0.541992 0.166016 4.45476 0.166016 9.25033C0.166016 12.4931 2.6104 15.5464 5.59017 18.6777C8.56994 21.8089 12.2376 24.9803 15.1597 27.9024C15.3825 28.125 15.6845 28.2501 15.9993 28.2501C16.3142 28.2501 16.6162 28.125 16.8389 27.9024C19.761 24.9803 23.4288 21.8089 26.4085 18.6777C29.3883 15.5464 31.8327 12.4931 31.8327 9.25033C31.8327 4.45476 27.9199 0.541992 23.1243 0.541992C20.3722 0.541992 17.976 2.01963 15.9993 4.5297C14.0227 2.01963 11.6265 0.541992 8.87435 0.541992ZM8.87435 2.91699C11.1928 2.91699 13.1227 4.15072 14.9958 7.11344C15.103 7.28268 15.2511 7.42207 15.4266 7.51866C15.602 7.61525 15.7991 7.6659 15.9993 7.6659C16.1996 7.6659 16.3967 7.61525 16.5721 7.51866C16.7476 7.42207 16.8957 7.28268 17.0028 7.11344C18.876 4.15072 20.8059 2.91699 23.1243 2.91699C26.6365 2.91699 29.4577 5.73814 29.4577 9.25033C29.4577 11.1534 27.5479 14.0376 24.6891 17.0417C22.0822 19.7812 18.8417 22.6433 15.9993 25.4146C13.157 22.6433 9.91651 19.7812 7.30957 17.0417C4.4508 14.0376 2.54102 11.1534 2.54102 9.25033C2.54102 5.73814 5.36217 2.91699 8.87435 2.91699Z"/>
</svg>
